<?xml version="1.0" encoding="UTF-8" standalone="no"?>
<!-- Created with Inkscape (http://www.inkscape.org/) -->

<svg
   xmlns:dc="http://purl.org/dc/elements/1.1/"
   xmlns:cc="http://creativecommons.org/ns#"
   xmlns:rdf="http://www.w3.org/1999/02/22-rdf-syntax-ns#"
   xmlns:svg="http://www.w3.org/2000/svg"
   xmlns="http://www.w3.org/2000/svg"
   xmlns:xlink="http://www.w3.org/1999/xlink"
   xmlns:sodipodi="http://sodipodi.sourceforge.net/DTD/sodipodi-0.dtd"
   xmlns:inkscape="http://www.inkscape.org/namespaces/inkscape"
   id="svg3318"
   sodipodi:version="0.32"
   inkscape:version="0.91 r13725"
   width="500"
   height="500"
   version="1.0"
   sodipodi:docname="jsfslogo.svg"
   inkscape:output_extension="org.inkscape.output.svg.inkscape"
   inkscape:export-filename="/home/emanuele/Desktop/jsfullstack.png"
   inkscape:export-xdpi="90"
   inkscape:export-ydpi="90">
  <metadata
     id="metadata3323">
    <rdf:RDF>
      <cc:Work
         rdf:about="">
        <dc:format>image/svg+xml</dc:format>
        <dc:type
           rdf:resource="http://purl.org/dc/dcmitype/StillImage" />
        <dc:title />
      </cc:Work>
    </rdf:RDF>
  </metadata>
  <defs
     id="defs3321">
    <linearGradient
       inkscape:collect="always"
       id="linearGradient4362">
      <stop
         style="stop-color:#ff1313;stop-opacity:1"
         offset="0"
         id="stop4364" />
      <stop
         style="stop-color:#ae0000;stop-opacity:1"
         offset="1"
         id="stop4366" />
    </linearGradient>
    <inkscape:perspective
       sodipodi:type="inkscape:persp3d"
       inkscape:vp_x="0 : 526.18109 : 1"
       inkscape:vp_y="0 : 1000 : 0"
       inkscape:vp_z="744.09448 : 526.18109 : 1"
       inkscape:persp3d-origin="372.04724 : 350.78739 : 1"
       id="perspective3325" />
    <filter
       inkscape:collect="always"
       style="color-interpolation-filters:sRGB"
       id="filter4268"
       x="-0.072"
       width="1.144"
       y="-0.072"
       height="1.144">
      <feGaussianBlur
         inkscape:collect="always"
         stdDeviation="31.582874"
         id="feGaussianBlur4270" />
    </filter>
    <filter
       inkscape:collect="always"
       style="color-interpolation-filters:sRGB"
       id="filter4278"
       x="-0.025244799"
       width="1.0504896"
       y="-0.022872192"
       height="1.0457444">
      <feGaussianBlur
         inkscape:collect="always"
         stdDeviation="3.5186653"
         id="feGaussianBlur4280" />
    </filter>
    <radialGradient
       inkscape:collect="always"
       xlink:href="#linearGradient4362"
       id="radialGradient4368"
       cx="267.99155"
       cy="232.28392"
       fx="267.99155"
       fy="232.28392"
       r="211.79671"
       gradientTransform="matrix(1.3360823,0.02072671,-0.01708667,1.1022154,-79.060912,-36.30571)"
       gradientUnits="userSpaceOnUse" />
    <filter
       inkscape:collect="always"
       style="color-interpolation-filters:sRGB"
       id="filter4205"
       x="-0.036060899"
       width="1.0721218"
       y="-0.035939307"
       height="1.0718786">
      <feGaussianBlur
         inkscape:collect="always"
         stdDeviation="6.4609561"
         id="feGaussianBlur4207" />
    </filter>
  </defs>
  <sodipodi:namedview
     inkscape:window-height="719"
     inkscape:window-width="1366"
     inkscape:pageshadow="2"
     inkscape:pageopacity="0.0"
     guidetolerance="10.0"
     gridtolerance="10.0"
     objecttolerance="10.0"
     borderopacity="1.0"
     bordercolor="#666666"
     pagecolor="#ffffff"
     id="base"
     showgrid="false"
     inkscape:zoom="0.5789437"
     inkscape:cx="300.32201"
     inkscape:cy="264.16062"
     inkscape:window-x="0"
     inkscape:window-y="25"
     inkscape:current-layer="g4166"
     fit-margin-top="0"
     fit-margin-left="0"
     fit-margin-right="0"
     fit-margin-bottom="0"
     inkscape:window-maximized="1"
     inkscape:object-nodes="true"
     inkscape:snap-smooth-nodes="false"
     inkscape:snap-nodes="false"
     inkscape:object-paths="false"
     showguides="true"
     inkscape:guide-bbox="true" />
  <g
     id="g4183"
     transform="translate(-21.984734,47.32818)">
    <rect
       inkscape:export-ydpi="90"
       inkscape:export-xdpi="90"
       ry="24.427479"
       y="-47.328205"
       x="21.984776"
       height="500.00003"
       width="500.00003"
       id="rect3338"
       style="fill:#aad400" />
    <rect
       style="fill:#d5da6a;fill-opacity:0.56204379;filter:url(#filter4268)"
       id="rect4221"
       width="1052.7625"
       height="1052.7625"
       x="988.9859"
       y="-1380.3176"
       ry="526.38123"
       inkscape:export-xdpi="90"
       inkscape:export-ydpi="90"
       transform="matrix(0.46498378,0,0,0.46498378,-432.6324,599.73438)" />
    <g
       id="g4209"
       transform="translate(2.2522252,-2)">
      <g
         style="fill:#333333;filter:url(#filter4205)"
         transform="translate(-0.2727178,12.727405)"
         id="g4171">
        <path
           style="fill:#333333;fill-opacity:1"
           d="M 268.42495,-14.6194 C 222.52446,-13.9123 176.88012,1.9905 141.22093,30.82354 102.896,67.19595 78.279,101.8864 64.08278,152.28674 c -14.81303,64.83791 -17.30168,121.1246 38.13096,165.6976 14.8023,1.49186 30.70009,3.24457 36.8031,5.67675 0.83561,12.18365 2.39948,38.62439 9.24414,49.58599 12.21211,19.66596 32.11979,29.77732 52.45277,35.10952 36.07609,7.04271 75.4819,8.99164 112.2175,6.07316 41.7744,-3.5588 72.5727,-22.03191 85.2358,-59.61366 1.4236,-4.79583 4.88446,-24.14106 5.58456,-29.92368 82.32018,-34.55615 86.52556,-72.84203 78.35234,-143.05573 -10.9817,-61.74014 -37.6312,-112.97649 -85.1451,-153.52099 -22.9754,-18.2535 -52.4385,-31.8823 -82.9093,-38.4634 -14.9899,-3.2375 -30.3225,-4.7075 -45.6242,-4.4718 z"
           id="path4173"
           sodipodi:nodetypes="ccccccccccccscc"
           inkscape:connector-curvature="0" />
        <path
           style="fill:#333333;fill-opacity:1"
           d="M 268.00485,-15.6969 C 222.31554,-14.9826 176.81795,1.1027 141.37462,30.18746 128.47233,40.77508 108.20489,62.99381 98.46,77.22205 l -3.06313,4.47655 1.83788,6.62154 c 4.22612,15.27885 5.31036,25.34902 5.32983,48.58891 0.0162,19.27273 -0.30002,24.11037 -2.2667,34.81743 -4.24673,23.12016 -11.89561,43.24941 -22.60596,59.4383 -7.00756,10.59208 -17.61076,21.82503 -18.80771,19.92676 -1.85113,-2.93585 0.26379,8.3087 3.1244,16.63153 7.497338,20.25707 27.270751,47.50511 47.25093,58.46285 13.64105,-0.48883 23.19987,-2.06907 29.7573,-2.52483 -0.65586,-27.67183 54.45052,-47.7336 130.90309,-47.31082 69.83942,0.38621 133.84361,20.47503 133.83168,48.54215 17.20398,2.15891 10.51191,2.12606 24.63143,0.92327 24.59689,-2.09531 45.19499,-31.88315 53.39841,-72.42372 l -6.5551,-7.21217 c -19.123,-20.96175 -31.8724,-50.83182 -36.3902,-85.27157 -2.7853,-21.23416 -1.3218,-49.83799 3.6452,-71.06486 l 2.0523,-8.73545 -3.5226,-5.19153 c -10.0767,-14.84851 -29.6776,-35.8021 -45.1507,-48.27799 -22.7706,-18.3599 -52.1397,-32.1818 -82.4598,-38.8277 -14.9031,-3.2667 -30.1659,-4.7458 -45.3957,-4.5076 z m 1.746,10.2898 c 30.9022,-0.072 57.6024,11.3388 78.447,33.5117 25.9031,27.55389 35.2142,65.48249 24.9034,101.5923 -4.9809,17.44361 -13.8614,32.12935 -27.8133,46.00873 -16.5999,16.51343 -36.5233,26.36588 -60.3133,29.81241 -8.0981,1.17319 -23.112,1.11497 -31.27468,-0.0933 -41.76997,-6.18275 -76.78547,-37.52692 -87.60581,-78.43243 -3.67277,-17.22032 -4.34428,-36.10501 0.0919,-53.252 5.07004,-18.51363 13.8005,-33.75838 27.10878,-47.25221 21.00688,-21.2998 46.23883,-31.8249 76.45601,-31.8952 z"
           id="path4175"
           sodipodi:nodetypes="cscccsssscccscsccscccssccsssssccsc"
           inkscape:connector-curvature="0" />
        <path
           sodipodi:nodetypes="czczc"
           inkscape:connector-curvature="0"
           id="path4177"
           d="m 139.01684,323.66109 c 5.19216,-37.93942 83.87385,-48.06136 131.33491,-47.31082 47.46106,0.75054 125.59124,9.11167 133.39986,48.54215 76.41947,14.63772 1.07453,-59.06254 -132.96433,-59.61471 -134.03885,-0.55217 -206.686473,79.99351 -131.77044,58.38338 z"
           style="fill:#333333;fill-opacity:0.72560975;fill-rule:evenodd;stroke:none;stroke-width:1.70000005;stroke-linecap:butt;stroke-linejoin:miter;stroke-miterlimit:4;stroke-dasharray:none;stroke-opacity:1" />
      </g>
      <g
         transform="translate(-0.27270498,5.1818569)"
         id="g4166">
        <path
           inkscape:connector-curvature="0"
           sodipodi:nodetypes="ccccccccccccscc"
           id="path3460"
           d="M 268.42495,-14.6194 C 222.52446,-13.9123 176.88012,1.9905 141.22093,30.82354 102.896,67.19595 78.279,101.8864 64.08278,152.28674 c -14.81303,64.83791 -17.30168,121.1246 38.13096,165.6976 14.8023,1.49186 30.70009,3.24457 36.8031,5.67675 0.83561,12.18365 2.39948,38.62439 9.24414,49.58599 12.21211,19.66596 32.11979,29.77732 52.45277,35.10952 36.07609,7.04271 75.4819,8.99164 112.2175,6.07316 41.7744,-3.5588 72.5727,-22.03191 85.2358,-59.61366 1.4236,-4.79583 4.88446,-24.14106 5.58456,-29.92368 82.32018,-34.55615 86.52556,-72.84203 78.35234,-143.05573 -10.9817,-61.74014 -37.6312,-112.97649 -85.1451,-153.52099 -22.9754,-18.2535 -52.4385,-31.8823 -82.9093,-38.4634 -14.9899,-3.2375 -30.3225,-4.7075 -45.6242,-4.4718 z"
           style="fill:#f9f9f9;fill-opacity:1" />
        <path
           inkscape:connector-curvature="0"
           sodipodi:nodetypes="cscccsssscccscsccscccssccsssssccsc"
           id="path3335"
           d="M 268.00485,-15.6969 C 222.31554,-14.9826 176.81795,1.1027 141.37462,30.18746 128.47233,40.77508 108.20489,62.99381 98.46,77.22205 l -3.06313,4.47655 1.83788,6.62154 c 4.22612,15.27885 5.31036,25.34902 5.32983,48.58891 0.0162,19.27273 -0.30002,24.11037 -2.2667,34.81743 -4.24673,23.12016 -11.89561,43.24941 -22.60596,59.4383 -7.00756,10.59208 -17.61076,21.82503 -18.80771,19.92676 -1.85113,-2.93585 0.26379,8.3087 3.1244,16.63153 7.497338,20.25707 27.270751,47.50511 47.25093,58.46285 13.64105,-0.48883 23.19987,-2.06907 29.7573,-2.52483 -0.65586,-27.67183 54.45052,-47.7336 130.90309,-47.31082 69.83942,0.38621 133.84361,20.47503 133.83168,48.54215 17.20398,2.15891 10.51191,2.12606 24.63143,0.92327 24.59689,-2.09531 45.19499,-31.88315 53.39841,-72.42372 l -6.5551,-7.21217 c -19.123,-20.96175 -31.8724,-50.83182 -36.3902,-85.27157 -2.7853,-21.23416 -1.3218,-49.83799 3.6452,-71.06486 l 2.0523,-8.73545 -3.5226,-5.19153 c -10.0767,-14.84851 -29.6776,-35.8021 -45.1507,-48.27799 -22.7706,-18.3599 -52.1397,-32.1818 -82.4598,-38.8277 -14.9031,-3.2667 -30.1659,-4.7458 -45.3957,-4.5076 z m 1.746,10.2898 c 30.9022,-0.072 57.6024,11.3388 78.447,33.5117 25.9031,27.55389 35.2142,65.48249 24.9034,101.5923 -4.9809,17.44361 -13.8614,32.12935 -27.8133,46.00873 -16.5999,16.51343 -36.5233,26.36588 -60.3133,29.81241 -8.0981,1.17319 -23.112,1.11497 -31.27468,-0.0933 -41.76997,-6.18275 -76.78547,-37.52692 -87.60581,-78.43243 -3.67277,-17.22032 -4.34428,-36.10501 0.0919,-53.252 5.07004,-18.51363 13.8005,-33.75838 27.10878,-47.25221 21.00688,-21.2998 46.23883,-31.8249 76.45601,-31.8952 z"
           style="fill:url(#radialGradient4368);fill-opacity:1" />
        <path
           style="fill:#550000;fill-opacity:0.72560975;fill-rule:evenodd;stroke:none;stroke-width:1.70000005;stroke-linecap:butt;stroke-linejoin:miter;stroke-miterlimit:4;stroke-dasharray:none;stroke-opacity:1"
           d="m 139.01684,323.66109 c 5.19216,-37.93942 83.87385,-48.06136 131.33491,-47.31082 47.46106,0.75054 125.59124,9.11167 133.39986,48.54215 76.41947,14.63772 1.07453,-59.06254 -132.96433,-59.61471 -134.03885,-0.55217 -206.686473,79.99351 -131.77044,58.38338 z"
           id="path4148"
           inkscape:connector-curvature="0"
           sodipodi:nodetypes="czczc" />
      </g>
    </g>
    <g
       id="g4197">
      <path
         transform="matrix(0.47494098,0,0,0.47494098,-449.72519,608.24121)"
         sodipodi:nodetypes="ccsssscscscssscsscsssssssscccsssssscsssssccssscccsssssssssssscssssssss"
         inkscape:connector-curvature="0"
         id="path4272"
         d="m 1506.2474,-880.6675 c -18.6957,-10.02126 -46.6909,-27.01871 -47.2468,-28.68607 -0.3238,-0.9716 1.7744,-2.68387 4.7948,-3.91286 2.9539,-1.2019 7.9307,-3.39684 11.0598,-4.87763 3.129,-1.48081 6.7632,-2.69238 8.0759,-2.69238 1.3127,0 10.0869,4.48446 19.4982,9.96546 9.4113,5.48099 18.376,9.9675 19.9215,9.97 1.5455,0.003 33.9743,-17.64686 72.0639,-39.22082 l 69.2539,-39.22549 0.3348,-80.24031 c 0.1842,-44.1318 -0.1307,-80.9279 -0.6996,-81.7689 -1.8337,-2.7107 -137.9586,-78.9304 -140.966,-78.9304 -2.8531,0 -134.7782,73.7395 -139.5897,78.0237 -2.3014,2.0491 -2.4368,7.3778 -2.099,82.6007 l 0.3611,80.4108 22.0419,12.26328 c 27.9239,15.53588 35.7725,16.73203 45.204,6.88929 l 4.1184,-4.29797 0.3833,-80.616 c 0.2663,-55.9753 0.8532,-81.1814 1.9205,-82.4674 1.5883,-1.9138 17.0988,-2.6416 21.3698,-1.0027 1.9838,0.7613 2.2133,9.4423 2.2133,83.704 0,92.20958 0.026,91.91743 -9.2142,102.71284 -8.4711,9.89658 -14.2213,12.11964 -31.3654,12.12605 -17.881,0.006 -21.1111,-1.15558 -51.774,-18.6289 -17.3609,-9.89307 -22.527,-13.54907 -25.8871,-18.3199 l -4.1979,-5.96019 -0.3917,-85.4883 -0.3918,-85.4878 3.555,-7.2663 c 2.1901,-4.4763 5.564,-8.6215 8.7875,-10.7964 9.2495,-6.2405 140.8994,-80.2472 145.7738,-81.9465 5.9496,-2.074 12.3791,-2.0876 18.2571,-0.038 4.8105,1.6769 136.825,75.8589 145.8527,81.9579 3.1046,2.0974 6.6298,6.3809 8.7456,10.6268 l 3.5446,7.113 -0.01,82.6337 c -0.01,53.8595 -0.5239,84.49303 -1.4902,87.97242 -0.8159,2.93826 -3.8583,7.65653 -6.7672,10.49481 -3.1821,3.10485 -33.9068,21.27908 -77.2203,45.67723 -68.8678,38.79259 -72.2936,40.54375 -80.3314,41.06284 -7.4675,0.48227 -9.4015,0.003 -17.4912,-4.33312 z m 38.4807,-103.92343 c -1.5392,-0.35249 -6.2618,-1.32752 -10.4947,-2.16676 -25.1723,-4.99064 -43.3638,-24.27941 -41.7161,-44.23181 l 0.4368,-5.2896 11.7509,0 11.7509,0 2.5081,7.696 c 2.9108,8.9319 9.4913,15.7553 17.586,18.2352 2.9588,0.9065 13.1189,1.9739 22.5781,2.3721 18.9902,0.7993 31.8216,-0.974 39.0288,-5.3939 5.6743,-3.48 9.733,-13.2341 7.8532,-18.8735 -2.849,-8.5472 -11.9231,-11.6924 -45.8896,-15.9062 -35.1925,-4.3658 -48.9706,-9.2165 -56.7802,-19.9896 -11.2783,-15.5582 -7.4095,-40.5005 8.1093,-52.2808 15.2476,-11.5742 44.2798,-16.0416 72.0596,-11.0881 26.1355,4.6602 41.8627,19.2265 44.0932,40.8382 0.7137,6.9148 0.5522,7.4185 -2.6345,8.2183 -1.8673,0.4686 -7.1468,0.6593 -11.7324,0.4237 l -8.3375,-0.4283 -3.4983,-7.2613 c -7.6507,-15.8809 -14.8835,-19.3254 -40.5796,-19.3254 -26.0308,0 -36.3818,5.0302 -36.3818,17.6799 0,10.4774 6.031,13.0281 44.1602,18.6773 36.9957,5.4812 48.9315,9.513 57.6885,19.4866 10.7009,12.1878 9.7481,35.9339 -1.9922,49.6499 -11.3654,13.27833 -26.5211,18.47604 -55.7786,19.12991 -11.5442,0.25799 -22.2488,0.18064 -23.7881,-0.17184 z"
         style="opacity:1;fill:#501616;fill-opacity:0.87591242;stroke:none;stroke-width:6.3165741;stroke-linecap:butt;stroke-linejoin:round;stroke-miterlimit:4;stroke-dasharray:none;stroke-opacity:1;filter:url(#filter4278)" />
      <path
         style="fill:#ff0000;fill-opacity:1;stroke:none;stroke-width:6.3165741;stroke-linecap:butt;stroke-linejoin:round;stroke-miterlimit:4;stroke-dasharray:none;stroke-opacity:1"
         d="m 264.05364,184.67622 c -8.87936,-4.75951 -22.17543,-12.83229 -22.43945,-13.62419 -0.15378,-0.46145 0.84274,-1.27468 2.27725,-1.85838 1.40293,-0.57083 3.76662,-1.6133 5.25275,-2.31658 1.48609,-0.7033 3.21212,-1.27873 3.83558,-1.27873 0.62345,0 4.79068,2.12986 9.26049,4.73301 4.46981,2.60315 8.72752,4.73397 9.46154,4.73516 0.73402,0.001 16.13579,-8.38122 34.2261,-18.62757 l 32.89151,-18.6298 0.15901,-38.10918 c 0.0875,-20.96 -0.0621,-38.435976 -0.33226,-38.835401 -0.8709,-1.287423 -65.5222,-37.487282 -66.95053,-37.487282 -1.35506,0 -64.01169,35.021911 -66.29687,37.056653 -1.09303,0.973202 -1.15734,3.50402 -0.9969,39.230457 l 0.1715,38.190153 10.4686,5.82434 c 13.2622,7.37862 16.98982,7.94672 21.46923,3.272 l 1.956,-2.04128 0.18204,-38.28761 c 0.12648,-26.584966 0.40522,-38.556376 0.91213,-39.16715 0.75434,-0.908942 8.12092,-1.254604 10.14939,-0.476223 0.94219,0.361572 1.05119,4.484535 1.05119,39.754463 0,43.79388 0.0123,43.65512 -4.3762,48.78231 -4.02328,4.70029 -6.75428,5.75611 -14.89672,5.75915 -8.49242,0.003 -10.02652,-0.54883 -24.58959,-8.84762 -8.24541,-4.69863 -10.699,-6.43501 -12.29485,-8.70088 l -1.99375,-2.83073 -0.18604,-40.60167 -0.18608,-40.601663 1.68842,-3.451063 c 1.04017,-2.125979 2.64257,-4.094704 4.17354,-5.127653 4.39297,-2.963869 66.9189,-38.112684 69.23395,-38.919751 2.82571,-0.985028 5.87934,-0.991487 8.67105,-0.01805 2.2847,0.796428 64.9838,36.0285 69.27142,38.925165 1.4745,0.996141 3.14877,3.030551 4.15365,5.047103 l 1.68347,3.378255 -0.005,39.246131 c -0.005,25.580084 -0.24882,40.128974 -0.70776,41.781484 -0.3875,1.3955 -1.83246,3.63639 -3.21402,4.98441 -1.51131,1.47462 -16.10372,10.10631 -36.67508,21.69399 -32.70814,18.42419 -34.33519,19.25589 -38.15267,19.50242 -3.54663,0.22905 -4.46516,0.001 -8.30729,-2.05797 z m 18.27606,-49.3575 c -0.73103,-0.16738 -2.97399,-0.6305 -4.98437,-1.02907 -11.95535,-2.37026 -20.59524,-11.53107 -19.81268,-21.00728 l 0.20745,-2.51225 5.58099,0 5.58098,0 1.1912,3.65515 c 1.38246,4.24212 4.50781,7.48284 8.35231,8.66064 1.40526,0.43054 6.2307,0.93749 10.72327,1.12661 9.01922,0.37962 15.11338,-0.46259 18.53637,-2.56178 2.69496,-1.6528 4.6226,-6.28542 3.72981,-8.9638 -1.35311,-4.05942 -5.66277,-5.5532 -21.79485,-7.55451 -16.71436,-2.0735 -23.25815,-4.37729 -26.96725,-9.49388 -5.35652,-7.389227 -3.51907,-19.235347 3.85144,-24.830294 7.24171,-5.497062 21.03029,-7.618813 34.22406,-5.266193 12.41282,2.21332 19.88231,9.131452 20.94167,19.395734 0.33896,3.284122 0.26226,3.52335 -1.25123,3.903208 -0.88686,0.222557 -3.39431,0.313128 -5.5722,0.201232 l -3.95982,-0.203417 -1.66149,-3.448689 c -3.63363,-7.54249 -7.06878,-9.178424 -19.27291,-9.178424 -12.3631,0 -17.27921,2.389048 -17.27921,8.396909 0,4.976146 2.86437,6.187578 20.97349,8.870615 17.57077,2.603246 23.23957,4.518114 27.39863,9.254989 5.0823,5.78848 4.62977,17.06648 -0.94618,23.58077 -5.39789,6.30622 -12.59595,8.77479 -26.49154,9.08535 -5.48281,0.12253 -10.56687,0.0858 -11.29794,-0.0816 z"
         id="path3425"
         inkscape:connector-curvature="0"
         sodipodi:nodetypes="ccsssscscscssscsscsssssssscccsssssscsssssccssscccsssssssssssscssssssss" />
    </g>
  </g>
</svg>
