<?xml version="1.0" encoding="UTF-8" standalone="no"?>
<!-- Created with Inkscape (http://www.inkscape.org/) -->

<svg
   xmlns:dc="http://purl.org/dc/elements/1.1/"
   xmlns:cc="http://creativecommons.org/ns#"
   xmlns:rdf="http://www.w3.org/1999/02/22-rdf-syntax-ns#"
   xmlns:svg="http://www.w3.org/2000/svg"
   xmlns="http://www.w3.org/2000/svg"
   xmlns:sodipodi="http://sodipodi.sourceforge.net/DTD/sodipodi-0.dtd"
   xmlns:inkscape="http://www.inkscape.org/namespaces/inkscape"
   id="svg3318"
   sodipodi:version="0.32"
   inkscape:version="0.91 r13725"
   width="500"
   height="500"
   version="1.0"
   sodipodi:docname="jsfslogo.svg"
   inkscape:output_extension="org.inkscape.output.svg.inkscape"
   inkscape:export-filename="/home/emanuele/Desktop/jsfullstack.png"
   inkscape:export-xdpi="90"
   inkscape:export-ydpi="90">
  <metadata
     id="metadata3323">
    <rdf:RDF>
      <cc:Work
         rdf:about="">
        <dc:format>image/svg+xml</dc:format>
        <dc:type
           rdf:resource="http://purl.org/dc/dcmitype/StillImage" />
        <dc:title />
      </cc:Work>
    </rdf:RDF>
  </metadata>
  <defs
     id="defs3321">
    <inkscape:perspective
       sodipodi:type="inkscape:persp3d"
       inkscape:vp_x="0 : 526.18109 : 1"
       inkscape:vp_y="0 : 1000 : 0"
       inkscape:vp_z="744.09448 : 526.18109 : 1"
       inkscape:persp3d-origin="372.04724 : 350.78739 : 1"
       id="perspective3325" />
    <filter
       inkscape:collect="always"
       style="color-interpolation-filters:sRGB"
       id="filter4268"
       x="-0.072"
       width="1.144"
       y="-0.072"
       height="1.144">
      <feGaussianBlur
         inkscape:collect="always"
         stdDeviation="31.582874"
         id="feGaussianBlur4270" />
    </filter>
    <filter
       inkscape:collect="always"
       style="color-interpolation-filters:sRGB"
       id="filter4278"
       x="-0.025244799"
       width="1.0504896"
       y="-0.022872192"
       height="1.0457444">
      <feGaussianBlur
         inkscape:collect="always"
         stdDeviation="3.5186653"
         id="feGaussianBlur4280" />
    </filter>
    <filter
       inkscape:collect="always"
       style="color-interpolation-filters:sRGB"
       id="filter4334"
       x="-0.018019137"
       width="1.0360383"
       y="-0.017980903"
       height="1.0359618">
      <feGaussianBlur
         inkscape:collect="always"
         stdDeviation="3.5520309"
         id="feGaussianBlur4336" />
    </filter>
  </defs>
  <sodipodi:namedview
     inkscape:window-height="719"
     inkscape:window-width="1366"
     inkscape:pageshadow="2"
     inkscape:pageopacity="0.0"
     guidetolerance="10.0"
     gridtolerance="10.0"
     objecttolerance="10.0"
     borderopacity="1.0"
     bordercolor="#666666"
     pagecolor="#ffffff"
     id="base"
     showgrid="false"
     inkscape:zoom="0.81875003"
     inkscape:cx="356.11461"
     inkscape:cy="269.66493"
     inkscape:window-x="0"
     inkscape:window-y="25"
     inkscape:current-layer="g4183"
     fit-margin-top="0"
     fit-margin-left="0"
     fit-margin-right="0"
     fit-margin-bottom="0"
     inkscape:window-maximized="1" />
  <g
     id="g4183"
     transform="translate(-21.984734,47.32818)">
    <rect
       inkscape:export-ydpi="90"
       inkscape:export-xdpi="90"
       ry="24.427479"
       y="-47.328205"
       x="21.984776"
       height="500.00003"
       width="500.00003"
       id="rect3338"
       style="fill:#aad400" />
    <rect
       style="fill:#d5da6a;fill-opacity:0.56204379;filter:url(#filter4268)"
       id="rect4221"
       width="1052.7625"
       height="1052.7625"
       x="988.9859"
       y="-1380.3176"
       ry="526.38123"
       inkscape:export-xdpi="90"
       inkscape:export-ydpi="90"
       transform="matrix(0.46498378,0,0,0.46498378,-432.6324,599.73438)" />
    <path
       transform="matrix(0.90776961,0,0,0.90776961,24.43773,12.5124)"
       style="fill:#3e4837;fill-opacity:1;filter:url(#filter4334)"
       d="m 270.81194,-22.761064 c -50.56408,0.77897 -100.84595,18.2975203 -140.12809,50.06001 -42.218814,40.067895 -69.336954,78.282984 -84.975534,133.804024 -16.31805,71.42551 -19.05951,133.43099 42.00515,182.53265 8.5407,6.10823 25.585724,15.14489 36.180334,19.23848 0.99729,0.41551 2.13174,0.60931 3.29517,0.59913 0.92047,13.42152 3.71012,28.96457 11.25019,41.03988 13.45285,21.66405 35.38317,32.80273 57.78203,38.67669 39.74143,7.75826 83.15088,9.9052 123.61894,6.6902 46.01865,-3.92038 79.94613,-24.27038 93.8958,-65.67048 1.56823,-5.28309 2.72357,-11.30398 3.49488,-17.67411 0.0335,-0.0217 0.0669,-0.0439 0.0998,-0.0666 83.21168,-36.2578 98.69327,-95.24029 88.86984,-172.81355 -12.0975,-68.01302 -41.45457,-124.454999 -93.79595,-169.118964 -25.30965,-20.10802 -57.76631,-35.12158 -91.3329,-42.37127 -16.51298,-3.56647 -33.40331,-5.1858 -50.25971,-4.92612 z"
       id="path3350"
       sodipodi:nodetypes="ccccccccccccccsc"
       inkscape:connector-curvature="0" />
    <path
       inkscape:connector-curvature="0"
       sodipodi:nodetypes="ccccccccccccccsc"
       id="path3460"
       d="M 268.42495,-14.6194 C 222.52446,-13.9123 176.88012,1.9905 141.22093,30.82354 102.896,67.19595 78.279,101.8864 64.08278,152.28674 c -14.81303,64.83791 -17.30168,121.1246 38.13096,165.6976 7.75299,5.54487 23.22595,13.74807 32.84341,17.46411 0.90533,0.37719 1.93514,0.55311 2.99127,0.54387 0.83561,12.18365 3.3679,26.29316 10.21256,37.25476 12.21211,19.66596 32.11979,29.77732 52.45277,35.10952 36.07609,7.04271 75.4819,8.99164 112.2175,6.07316 41.7744,-3.5588 72.5727,-22.03191 85.2358,-59.61366 1.4236,-4.79583 2.4724,-10.26141 3.1725,-16.04403 0.03,-0.0197 0.061,-0.0398 0.091,-0.0605 75.5371,-32.91372 89.5908,-86.45624 80.6734,-156.87488 -10.9817,-61.74014 -37.6312,-112.97649 -85.1451,-153.52099 -22.9754,-18.2535 -52.4385,-31.8823 -82.9093,-38.4634 -14.9899,-3.2375 -30.3225,-4.7075 -45.6242,-4.4718 z"
       style="fill:#f9f9f9;fill-opacity:1" />
    <path
       inkscape:connector-curvature="0"
       sodipodi:nodetypes="cscccssssssccccccscccssccsssssccsc"
       id="path3335"
       d="M 268.00485,-15.6969 C 222.31554,-14.9826 176.81795,1.1027 141.37462,30.18746 128.47233,40.77508 108.20489,62.99381 98.46,77.22205 l -3.06313,4.47655 1.83788,6.62154 c 4.22612,15.27885 5.31036,25.34902 5.32983,48.58891 0.0162,19.27273 -0.30002,24.11037 -2.2667,34.81743 -4.24673,23.12016 -11.89561,43.24941 -22.60596,59.4383 -7.00756,10.59208 -17.61076,21.82503 -18.80771,19.92676 -1.85113,-2.93585 0.26379,8.3087 3.1244,16.63153 6.77622,19.71517 20.87228,38.11755 39.66769,51.75981 7.3129,5.30793 23.20509,13.88121 32.43866,17.50199 8.43253,3.56558 -0.70776,-18.70496 5.39946,-23.16545 66.97684,-67.38275 201.36243,-54.39273 262.27443,-3.50888 1.4698,10.17866 2.2239,19.39169 -0.523,30.09047 23.6104,-10.56447 68.5975,-28.11087 80.5156,-87.00904 l -6.5551,-7.21217 c -19.123,-20.96175 -31.8724,-50.83182 -36.3902,-85.27157 -2.7853,-21.23416 -1.3218,-49.83799 3.6452,-71.06486 l 2.0523,-8.73545 -3.5226,-5.19153 c -10.0767,-14.84851 -29.6776,-35.8021 -45.1507,-48.27799 -22.7706,-18.3599 -52.1397,-32.1818 -82.4598,-38.8277 -14.9031,-3.2667 -30.1659,-4.7458 -45.3957,-4.5076 z m 1.746,10.2898 c 30.9022,-0.072 57.6024,11.3388 78.447,33.5117 25.9031,27.55389 35.2142,65.48249 24.9034,101.5923 -4.9809,17.44361 -13.8614,32.12935 -27.8133,46.00873 -16.5999,16.51343 -36.5233,26.36588 -60.3133,29.81241 -8.0981,1.17319 -23.112,1.11497 -31.27468,-0.0933 -41.76997,-6.18275 -76.78547,-37.52692 -87.60581,-78.43243 -3.67277,-17.22032 -4.34428,-36.10501 0.0919,-53.252 5.07004,-18.51363 13.8005,-33.75838 27.10878,-47.25221 21.00688,-21.2998 46.23883,-31.8249 76.45601,-31.8952 z"
       style="fill:#ff0000" />
    <g
       transform="matrix(0.47494098,0,0,0.47494098,-449.72519,608.24121)"
       id="g4338">
      <path
         sodipodi:nodetypes="ccsssscscscssscsscsssssssscccsssssscsssssccssscccsssssssssssscssssssss"
         inkscape:connector-curvature="0"
         id="path4272"
         d="m 1506.2474,-880.6675 c -18.6957,-10.02126 -46.6909,-27.01871 -47.2468,-28.68607 -0.3238,-0.9716 1.7744,-2.68387 4.7948,-3.91286 2.9539,-1.2019 7.9307,-3.39684 11.0598,-4.87763 3.129,-1.48081 6.7632,-2.69238 8.0759,-2.69238 1.3127,0 10.0869,4.48446 19.4982,9.96546 9.4113,5.48099 18.376,9.9675 19.9215,9.97 1.5455,0.003 33.9743,-17.64686 72.0639,-39.22082 l 69.2539,-39.22549 0.3348,-80.24031 c 0.1842,-44.1318 -0.1307,-80.9279 -0.6996,-81.7689 -1.8337,-2.7107 -137.9586,-78.9304 -140.966,-78.9304 -2.8531,0 -134.7782,73.7395 -139.5897,78.0237 -2.3014,2.0491 -2.4368,7.3778 -2.099,82.6007 l 0.3611,80.4108 22.0419,12.26328 c 27.9239,15.53588 35.7725,16.73203 45.204,6.88929 l 4.1184,-4.29797 0.3833,-80.616 c 0.2663,-55.9753 0.8532,-81.1814 1.9205,-82.4674 1.5883,-1.9138 17.0988,-2.6416 21.3698,-1.0027 1.9838,0.7613 2.2133,9.4423 2.2133,83.704 0,92.20958 0.026,91.91743 -9.2142,102.71284 -8.4711,9.89658 -14.2213,12.11964 -31.3654,12.12605 -17.881,0.006 -21.1111,-1.15558 -51.774,-18.6289 -17.3609,-9.89307 -22.527,-13.54907 -25.8871,-18.3199 l -4.1979,-5.96019 -0.3917,-85.4883 -0.3918,-85.4878 3.555,-7.2663 c 2.1901,-4.4763 5.564,-8.6215 8.7875,-10.7964 9.2495,-6.2405 140.8994,-80.2472 145.7738,-81.9465 5.9496,-2.074 12.3791,-2.0876 18.2571,-0.038 4.8105,1.6769 136.825,75.8589 145.8527,81.9579 3.1046,2.0974 6.6298,6.3809 8.7456,10.6268 l 3.5446,7.113 -0.01,82.6337 c -0.01,53.8595 -0.5239,84.49303 -1.4902,87.97242 -0.8159,2.93826 -3.8583,7.65653 -6.7672,10.49481 -3.1821,3.10485 -33.9068,21.27908 -77.2203,45.67723 -68.8678,38.79259 -72.2936,40.54375 -80.3314,41.06284 -7.4675,0.48227 -9.4015,0.003 -17.4912,-4.33312 z m 38.4807,-103.92343 c -1.5392,-0.35249 -6.2618,-1.32752 -10.4947,-2.16676 -25.1723,-4.99064 -43.3638,-24.27941 -41.7161,-44.23181 l 0.4368,-5.2896 11.7509,0 11.7509,0 2.5081,7.696 c 2.9108,8.9319 9.4913,15.7553 17.586,18.2352 2.9588,0.9065 13.1189,1.9739 22.5781,2.3721 18.9902,0.7993 31.8216,-0.974 39.0288,-5.3939 5.6743,-3.48 9.733,-13.2341 7.8532,-18.8735 -2.849,-8.5472 -11.9231,-11.6924 -45.8896,-15.9062 -35.1925,-4.3658 -48.9706,-9.2165 -56.7802,-19.9896 -11.2783,-15.5582 -7.4095,-40.5005 8.1093,-52.2808 15.2476,-11.5742 44.2798,-16.0416 72.0596,-11.0881 26.1355,4.6602 41.8627,19.2265 44.0932,40.8382 0.7137,6.9148 0.5522,7.4185 -2.6345,8.2183 -1.8673,0.4686 -7.1468,0.6593 -11.7324,0.4237 l -8.3375,-0.4283 -3.4983,-7.2613 c -7.6507,-15.8809 -14.8835,-19.3254 -40.5796,-19.3254 -26.0308,0 -36.3818,5.0302 -36.3818,17.6799 0,10.4774 6.031,13.0281 44.1602,18.6773 36.9957,5.4812 48.9315,9.513 57.6885,19.4866 10.7009,12.1878 9.7481,35.9339 -1.9922,49.6499 -11.3654,13.27833 -26.5211,18.47604 -55.7786,19.12991 -11.5442,0.25799 -22.2488,0.18064 -23.7881,-0.17184 z"
         style="opacity:1;fill:#501616;fill-opacity:0.87591242;stroke:none;stroke-width:6.3165741;stroke-linecap:butt;stroke-linejoin:round;stroke-miterlimit:4;stroke-dasharray:none;stroke-opacity:1;filter:url(#filter4278)" />
      <path
         style="fill:#ff0000;fill-opacity:1;stroke:none;stroke-width:6.3165741;stroke-linecap:butt;stroke-linejoin:round;stroke-miterlimit:4;stroke-dasharray:none;stroke-opacity:1"
         d="m 1502.879,-891.82658 c -18.6957,-10.02126 -46.6909,-27.01871 -47.2468,-28.68607 -0.3238,-0.9716 1.7744,-2.68387 4.7948,-3.91286 2.9539,-1.2019 7.9307,-3.39684 11.0598,-4.87763 3.129,-1.48081 6.7632,-2.69238 8.0759,-2.69238 1.3127,0 10.0869,4.48446 19.4982,9.96546 9.4113,5.48099 18.376,9.9675 19.9215,9.97 1.5455,0.003 33.9743,-17.64686 72.0639,-39.22082 l 69.2539,-39.22549 0.3348,-80.23983 c 0.1842,-44.1318 -0.1307,-80.9279 -0.6996,-81.7689 -1.8337,-2.7107 -137.9586,-78.9304 -140.966,-78.9304 -2.8531,0 -134.7782,73.7395 -139.5897,78.0237 -2.3014,2.0491 -2.4368,7.3778 -2.099,82.6007 l 0.3611,80.41032 22.0419,12.26328 c 27.9239,15.53588 35.7725,16.73203 45.204,6.88929 l 4.1184,-4.29797 0.3833,-80.61552 c 0.2663,-55.9753 0.8532,-81.1814 1.9205,-82.4674 1.5883,-1.9138 17.0988,-2.6416 21.3698,-1.0027 1.9838,0.7613 2.2133,9.4423 2.2133,83.704 0,92.2091 0.026,91.91695 -9.2142,102.71236 -8.4711,9.89658 -14.2213,12.11964 -31.3654,12.12605 -17.881,0.006 -21.1111,-1.15558 -51.774,-18.6289 -17.3609,-9.89307 -22.527,-13.54907 -25.8871,-18.3199 l -4.1979,-5.96019 -0.3917,-85.48782 -0.3918,-85.4878 3.555,-7.2663 c 2.1901,-4.4763 5.564,-8.6215 8.7875,-10.7964 9.2495,-6.2405 140.8994,-80.2472 145.7738,-81.9465 5.9496,-2.074 12.3791,-2.0876 18.2571,-0.038 4.8105,1.6769 136.825,75.8589 145.8527,81.9579 3.1046,2.0974 6.6298,6.3809 8.7456,10.6268 l 3.5446,7.113 -0.01,82.6337 c -0.01,53.8595 -0.5239,84.49255 -1.4902,87.97194 -0.8159,2.93826 -3.8583,7.65653 -6.7672,10.49481 -3.1821,3.10485 -33.9068,21.27908 -77.2203,45.67723 -68.8678,38.79259 -72.2936,40.54375 -80.3314,41.06284 -7.4675,0.48227 -9.4015,0.003 -17.4912,-4.33312 z m 38.4807,-103.92343 c -1.5392,-0.35244 -6.2618,-1.32754 -10.4947,-2.16674 -25.1723,-4.99065 -43.3638,-24.27895 -41.7161,-44.23135 l 0.4368,-5.2896 11.7509,0 11.7509,0 2.5081,7.696 c 2.9108,8.9319 9.4913,15.7553 17.586,18.2352 2.9588,0.9065 13.1189,1.9739 22.5781,2.3721 18.9902,0.7993 31.8216,-0.974 39.0288,-5.3939 5.6743,-3.48 9.733,-13.2341 7.8532,-18.8735 -2.849,-8.5472 -11.9231,-11.6924 -45.8896,-15.9062 -35.1925,-4.3658 -48.9706,-9.2165 -56.7802,-19.9896 -11.2783,-15.5582 -7.4095,-40.5005 8.1093,-52.2808 15.2476,-11.5742 44.2798,-16.0416 72.0596,-11.0881 26.1355,4.6602 41.8627,19.2265 44.0932,40.8382 0.7137,6.9148 0.5522,7.4185 -2.6345,8.2183 -1.8673,0.4686 -7.1468,0.6593 -11.7324,0.4237 l -8.3375,-0.4283 -3.4983,-7.2613 c -7.6507,-15.8809 -14.8835,-19.3254 -40.5796,-19.3254 -26.0308,0 -36.3818,5.0302 -36.3818,17.6799 0,10.4774 6.031,13.0281 44.1602,18.6773 36.9957,5.4812 48.9315,9.513 57.6885,19.4866 10.7009,12.1878 9.7481,35.9339 -1.9922,49.6499 -11.3654,13.2779 -26.5211,18.47555 -55.7786,19.12943 -11.5442,0.25799 -22.2488,0.18064 -23.7881,-0.17184 z"
         id="path3425"
         inkscape:connector-curvature="0"
         sodipodi:nodetypes="ccsssscscscssscsscsssssssscccsssssscsssssccssscccsssssssssssscssssssss" />
    </g>
  </g>
</svg>
